<svg width="30" height="30" viewBox="0 0 30 30" fill="none" xmlns="http://www.w3.org/2000/svg">
<path d="M14.85 0C1.078 0 0 1.078 0 14.85V15.15C0 28.922 1.078 30 14.85 30H15.15C28.922 30 30 28.922 30 15.15V14.85C30 1.078 28.922 0 15.15 0H14.85ZM23.5 5C23.7967 5 24.0867 5.08797 24.3334 5.2528C24.58 5.41762 24.7723 5.65189 24.8858 5.92597C24.9993 6.20006 25.0291 6.50166 24.9712 6.79263C24.9133 7.08361 24.7704 7.35088 24.5607 7.56066C24.3509 7.77044 24.0836 7.9133 23.7926 7.97118C23.5017 8.02906 23.2001 7.99935 22.926 7.88582C22.6519 7.77229 22.4176 7.58003 22.2528 7.33335C22.088 7.08668 22 6.79667 22 6.5C22 6.10218 22.158 5.72064 22.4393 5.43934C22.7206 5.15804 23.1022 5 23.5 5ZM14.98 7C16.5622 6.99605 18.1101 7.46138 19.4279 8.33714C20.7457 9.2129 21.7742 10.4598 22.3833 11.9201C22.9925 13.3803 23.1549 14.9885 22.8501 16.5411C22.5453 18.0937 21.787 19.5211 20.671 20.6427C19.5549 21.7643 18.1314 22.5298 16.5803 22.8423C15.0292 23.1549 13.4203 23.0005 11.957 22.3986C10.4937 21.7968 9.2417 20.7746 8.35936 19.4612C7.47702 18.1478 7.00396 16.6022 7 15.02C6.99737 13.9694 7.20169 12.9286 7.6013 11.957C8.00091 10.9854 8.58798 10.102 9.329 9.35728C10.07 8.61255 10.9505 8.02107 11.9201 7.61661C12.8897 7.21215 13.9294 7.00262 14.98 7ZM14.98 8C13.5956 8.00396 12.2435 8.41832 11.0946 9.19069C9.94572 9.96306 9.05164 11.0587 8.52542 12.3392C7.99921 13.6197 7.86449 15.0274 8.13831 16.3845C8.41212 17.7415 9.08217 18.9869 10.0637 19.9631C11.0453 20.9394 12.2943 21.6027 13.6528 21.8691C15.0113 22.1355 16.4183 21.9932 17.6959 21.46C18.9735 20.9269 20.0643 20.0269 20.8304 18.8738C21.5965 17.7207 22.0036 16.3664 22 14.982C21.9976 14.0627 21.8142 13.153 21.4603 12.3046C21.1063 11.4562 20.5887 10.6859 19.937 10.0375C19.2853 9.38918 18.5123 8.87555 17.6622 8.52595C16.812 8.17635 15.9013 7.99763 14.982 8H14.98Z" fill="#877A70"/>
</svg>
