<svg width="30" height="30" viewBox="0 0 30 30" fill="none" xmlns="http://www.w3.org/2000/svg">
<path d="M15 0C12.0333 0 9.13319 0.879735 6.66645 2.52796C4.19972 4.17618 2.27713 6.51886 1.14181 9.25975C0.00649929 12.0006 -0.290551 15.0166 0.288228 17.9264C0.867006 20.8361 2.29562 23.5088 4.3934 25.6066C6.49119 27.7044 9.16394 29.133 12.0737 29.7118C14.9834 30.2906 17.9994 29.9935 20.7403 28.8582C23.4811 27.7229 25.8238 25.8003 27.472 23.3336C29.1203 20.8668 30 17.9667 30 15C30 13.0302 29.612 11.0796 28.8582 9.25975C28.1044 7.43986 26.9995 5.78628 25.6066 4.3934C24.2137 3.00052 22.5601 1.89563 20.7403 1.14181C18.9204 0.387987 16.9698 0 15 0ZM9.37001 6.754C9.5948 6.73669 9.82073 6.76624 10.0335 6.84076C10.2463 6.91528 10.4413 7.03316 10.6062 7.18694C10.771 7.34072 10.9022 7.52705 10.9913 7.73413C11.0805 7.94122 11.1256 8.16455 11.124 8.39C11.1214 8.62448 11.0693 8.85577 10.9712 9.06876C10.8732 9.28175 10.7312 9.47165 10.5547 9.62605C10.3783 9.78045 10.1712 9.89588 9.94704 9.9648C9.72291 10.0337 9.48675 10.0546 9.25401 10.026C9.02922 10.0433 8.80328 10.0138 8.5905 9.93924C8.37772 9.86471 8.18272 9.74683 8.01785 9.59306C7.85298 9.43928 7.72183 9.25295 7.63269 9.04587C7.54355 8.83878 7.49837 8.61545 7.50001 8.39C7.50262 8.15552 7.55467 7.92423 7.65277 7.71124C7.75086 7.49825 7.89279 7.30835 8.06927 7.15395C8.24576 6.99955 8.45283 6.88412 8.67697 6.8152C8.9011 6.74628 9.13726 6.72543 9.37001 6.754ZM11.25 21.254H7.50001V11.254H11.25V21.254ZM23.75 21.254H20.22V15.785C20.22 14.274 19.279 13.925 18.926 13.925C18.573 13.925 17.396 14.158 17.396 15.785V21.25H13.75V11.25H17.4V12.65C17.87 11.836 18.811 11.25 20.576 11.25C22.341 11.25 23.752 12.65 23.752 15.785L23.75 21.254Z" fill="#877A70"/>
</svg>
