<svg width="30" height="30" viewBox="0 0 30 30" fill="none" xmlns="http://www.w3.org/2000/svg">
<path d="M21.17 0C29.359 0 30 0.641 30 8.83V21.17C30 29.359 29.359 30 21.17 30H19.6V19.078H23.45L24.05 14.751H19.6C19.6 14.751 19.593 12.217 19.6 11.585C19.6014 11.3353 19.653 11.0884 19.7517 10.8589C19.8504 10.6295 19.9941 10.4223 20.1744 10.2494C20.3546 10.0766 20.5678 9.94177 20.8012 9.85288C21.0346 9.764 21.2834 9.72289 21.533 9.732C22.421 9.741 24.259 9.732 24.259 9.732V5.747C23.1773 5.61618 22.0895 5.54175 21 5.524C20.226 5.49322 19.4539 5.62155 18.7315 5.90105C18.0091 6.18056 17.3517 6.6053 16.8 7.149C15.528 8.431 15.327 10.339 15.3 12.672C15.293 13.347 15.3 14.751 15.3 14.751H11.531V19.078H15.3V30H8.83C0.641 30 0 29.359 0 21.17V8.83C0 0.641 0.641 0 8.83 0H21.17Z" fill="#877A70"/>
</svg>
