<svg width="30" height="30" viewBox="0 0 30 30" fill="none" xmlns="http://www.w3.org/2000/svg">
<path d="M15 0C12.0333 0 9.13319 0.879735 6.66645 2.52796C4.19972 4.17618 2.27713 6.51886 1.14181 9.25975C0.00649929 12.0006 -0.290551 15.0166 0.288228 17.9264C0.867006 20.8361 2.29562 23.5088 4.3934 25.6066C6.49119 27.7044 9.16394 29.133 12.0737 29.7118C14.9834 30.2906 17.9994 29.9935 20.7403 28.8582C23.4811 27.7229 25.8238 25.8003 27.472 23.3336C29.1203 20.8668 30 17.9667 30 15C29.9955 11.0231 28.4137 7.21044 25.6016 4.39837C22.7896 1.5863 18.9769 0.00449947 15 0ZM21.349 21.742C21.2781 21.8493 21.1868 21.9417 21.0802 22.0136C20.9736 22.0856 20.8538 22.1359 20.7278 22.1615C20.6017 22.1872 20.4718 22.1877 20.3456 22.1631C20.2193 22.1384 20.0992 22.0891 19.992 22.018C17.9809 20.8419 15.6937 20.2208 13.364 20.218C11.9246 20.2132 10.4919 20.4153 9.11001 20.818C8.9882 20.8586 8.8596 20.8748 8.73155 20.8656C8.60349 20.8565 8.47848 20.8223 8.36366 20.7648C8.24884 20.7074 8.14646 20.6279 8.06236 20.5309C7.97826 20.4339 7.91408 20.3213 7.87351 20.1995C7.83293 20.0777 7.81674 19.9491 7.82586 19.821C7.83498 19.693 7.86924 19.568 7.92667 19.4532C7.9841 19.3383 8.06359 19.236 8.16059 19.1518C8.25759 19.0677 8.3702 19.0036 8.49201 18.963C10.0731 18.4929 11.7145 18.2571 13.364 18.263C16.0806 18.2517 18.7484 18.9846 21.078 20.382C21.1855 20.4532 21.2778 20.5449 21.3496 20.652C21.4215 20.759 21.4714 20.8792 21.4966 21.0056C21.5218 21.132 21.5217 21.2622 21.4964 21.3885C21.4711 21.5149 21.421 21.6351 21.349 21.742ZM23.3 17.742C23.1994 17.9034 23.0592 18.0366 22.8928 18.1288C22.7264 18.221 22.5392 18.2692 22.349 18.269C22.14 18.2696 21.9351 18.211 21.758 18.1C19.1921 16.5595 16.2325 15.8012 13.242 15.918C11.4594 15.935 9.6833 16.136 7.94201 16.518C7.79988 16.5606 7.65071 16.5745 7.50317 16.5589C7.35562 16.5433 7.21265 16.4985 7.08257 16.4271C6.9525 16.3558 6.83791 16.2593 6.74548 16.1432C6.65305 16.0272 6.58462 15.8939 6.54418 15.7511C6.50373 15.6084 6.49208 15.459 6.5099 15.3117C6.52771 15.1644 6.57464 15.0221 6.64795 14.8932C6.72127 14.7642 6.8195 14.651 6.93694 14.5604C7.05437 14.4697 7.18867 14.4033 7.33201 14.365C9.20143 13.9339 11.1135 13.7152 13.032 13.713C16.5027 13.58 19.9386 14.4456 22.932 16.207C23.1829 16.3622 23.3624 16.6103 23.4313 16.8973C23.5003 17.1842 23.4531 17.4867 23.3 17.739V17.742ZM25.246 13.061C25.1597 13.2091 25.0449 13.3386 24.9083 13.4422C24.7717 13.5457 24.6159 13.6212 24.45 13.6644C24.2841 13.7075 24.1113 13.7174 23.9416 13.6934C23.7719 13.6695 23.6085 13.6123 23.461 13.525C20.2513 11.837 16.6622 11.001 13.037 11.097H13C10.924 11.0925 8.85299 11.2995 6.81901 11.715C6.48231 11.7936 6.12817 11.7353 5.83449 11.5528C5.54081 11.3704 5.33164 11.0787 5.25301 10.742C5.17437 10.4053 5.2327 10.0512 5.41518 9.75748C5.59765 9.4638 5.88931 9.25464 6.22601 9.176C8.45381 8.71078 10.7242 8.47986 13 8.487H13.045C17.1333 8.3903 21.1773 9.35025 24.786 11.274C24.9338 11.3607 25.0629 11.4757 25.1661 11.6125C25.2692 11.7492 25.3443 11.905 25.3871 12.0709C25.4298 12.2368 25.4394 12.4094 25.4152 12.579C25.3909 12.7486 25.3335 12.9117 25.246 13.059V13.061Z" fill="#877A70"/>
</svg>
